%
M48
M72
T01C0.0240
T02C0.0315
T03C0.0350
%
T01
X5005Y2935
X4285Y3745
T02
X3725Y1044
X3725Y1831
X3725Y2619
X3725Y3406
X6725Y3406
X6725Y2619
X6725Y1831
X6725Y1044
X6725Y7044
X6725Y7831
X6725Y8619
X6725Y9406
X3725Y9406
X3725Y8619
X3725Y7831
X3725Y7044
T03
X725Y725
X725Y1725
X725Y2725
X725Y3725
X725Y4725
X725Y5725
X725Y6725
X725Y7725
X725Y8725
X725Y9725
X9725Y9725
X9725Y8725
X9725Y7725
X9725Y6725
X9725Y5725
X9725Y4725
X9725Y3725
X9725Y2725
X9725Y1725
X9725Y725
M30
