G75*
%MOIN*%
%OFA0B0*%
%FSLAX25Y25*%
%IPPOS*%
%LPD*%
%AMOC8*
5,1,8,0,0,1.08239X$1,22.5*
%
%ADD10C,0.00000*%
%ADD11R,0.05150X0.05150*%
%ADD12C,0.05150*%
%ADD13R,0.06500X0.06500*%
%ADD14C,0.06500*%
%ADD15C,0.01000*%
%ADD16C,0.03600*%
%ADD17C,0.03200*%
D10*
X0001000Y0001750D02*
X0001000Y0104211D01*
X0103500Y0104250D01*
X0103500Y0001750D01*
X0001000Y0001750D01*
D11*
X0037250Y0034811D03*
X0067250Y0011189D03*
X0067250Y0071189D03*
X0037250Y0094811D03*
D12*
X0037250Y0086937D03*
X0037250Y0079063D03*
X0037250Y0071189D03*
X0067250Y0079063D03*
X0067250Y0086937D03*
X0067250Y0094811D03*
X0067250Y0034811D03*
X0067250Y0026937D03*
X0067250Y0019063D03*
X0037250Y0019063D03*
X0037250Y0026937D03*
X0037250Y0011189D03*
D13*
X0007250Y0098000D03*
X0097250Y0098000D03*
D14*
X0097250Y0088000D03*
X0097250Y0078000D03*
X0097250Y0068000D03*
X0097250Y0058000D03*
X0097250Y0048000D03*
X0097250Y0038000D03*
X0097250Y0028000D03*
X0097250Y0018000D03*
X0097250Y0008000D03*
X0007250Y0008000D03*
X0007250Y0018000D03*
X0007250Y0028000D03*
X0007250Y0038000D03*
X0007250Y0048000D03*
X0007250Y0058000D03*
X0007250Y0068000D03*
X0007250Y0078000D03*
X0007250Y0088000D03*
D15*
X0007650Y0078600D02*
X0007250Y0078000D01*
X0007650Y0078600D02*
X0067050Y0019200D01*
X0067250Y0019063D01*
X0067050Y0012000D02*
X0067250Y0011189D01*
X0067050Y0012000D02*
X0031050Y0048000D01*
X0007250Y0048000D01*
X0049750Y0070500D02*
X0054450Y0075200D01*
X0054450Y0075900D01*
X0058050Y0077700D02*
X0058050Y0066000D01*
X0096750Y0027300D01*
X0097250Y0028000D01*
X0067250Y0026937D02*
X0067050Y0027300D01*
X0061650Y0067800D02*
X0061650Y0087600D01*
X0067050Y0093000D01*
X0067050Y0094800D01*
X0067250Y0094811D01*
X0058050Y0077700D02*
X0040950Y0094800D01*
X0037350Y0094800D01*
X0037250Y0094811D01*
D16*
X0054450Y0075900D03*
X0061650Y0067800D03*
D17*
X0052250Y0068000D02*
X0052250Y0043000D01*
X0062250Y0033000D01*
X0062250Y0030500D01*
X0065450Y0027300D01*
X0067050Y0027300D01*
X0052250Y0068000D02*
X0049750Y0070500D01*
X0041187Y0079063D01*
X0037250Y0079063D01*
M02*
