G75*
%MOIN*%
%OFA0B0*%
%FSLAX25Y25*%
%IPPOS*%
%LPD*%
%AMOC8*
5,1,8,0,0,1.08239X$1,22.5*
%
%ADD10C,0.00000*%
%ADD11R,0.05150X0.05150*%
%ADD12C,0.05150*%
%ADD13R,0.06500X0.06500*%
%ADD14C,0.06500*%
%ADD15C,0.01000*%
%ADD16C,0.03600*%
%ADD17C,0.03200*%
D10*
X0001000Y0001000D02*
X0103500Y0001039D01*
X0103500Y0103500D01*
X0001000Y0103500D01*
X0001000Y0001000D01*
D11*
X0037250Y0034061D03*
X0067250Y0010439D03*
X0067250Y0070439D03*
X0037250Y0094061D03*
D12*
X0037250Y0086187D03*
X0037250Y0078313D03*
X0037250Y0070439D03*
X0067250Y0078313D03*
X0067250Y0086187D03*
X0067250Y0094061D03*
X0067250Y0034061D03*
X0067250Y0026187D03*
X0067250Y0018313D03*
X0037250Y0018313D03*
X0037250Y0026187D03*
X0037250Y0010439D03*
D13*
X0007250Y0007250D03*
X0097250Y0007250D03*
D14*
X0097250Y0017250D03*
X0097250Y0027250D03*
X0097250Y0037250D03*
X0097250Y0047250D03*
X0097250Y0057250D03*
X0097250Y0067250D03*
X0097250Y0077250D03*
X0097250Y0087250D03*
X0097250Y0097250D03*
X0007250Y0097250D03*
X0007250Y0087250D03*
X0007250Y0077250D03*
X0007250Y0067250D03*
X0007250Y0057250D03*
X0007250Y0047250D03*
X0007250Y0037250D03*
X0007250Y0027250D03*
X0007250Y0017250D03*
D15*
X0037450Y0012250D02*
X0037450Y0010450D01*
X0037250Y0010439D01*
X0037450Y0012250D02*
X0042850Y0017650D01*
X0042850Y0037450D01*
X0046450Y0039250D02*
X0007750Y0077950D01*
X0007250Y0077250D01*
X0037250Y0078313D02*
X0037450Y0077950D01*
X0037450Y0086050D02*
X0037250Y0086187D01*
X0037450Y0086050D02*
X0096850Y0026650D01*
X0097250Y0027250D01*
X0097250Y0057250D02*
X0073450Y0057250D01*
X0037450Y0093250D01*
X0037250Y0094061D01*
X0046450Y0039250D02*
X0046450Y0027550D01*
X0063550Y0010450D01*
X0067150Y0010450D01*
X0067250Y0010439D01*
D16*
X0050050Y0029350D03*
X0042850Y0037450D03*
D17*
X0050050Y0030050D02*
X0054750Y0034750D01*
X0052250Y0037250D01*
X0052250Y0062250D01*
X0042250Y0072250D01*
X0042250Y0074750D01*
X0039050Y0077950D01*
X0037450Y0077950D01*
X0054750Y0034750D02*
X0063313Y0026187D01*
X0067250Y0026187D01*
X0050050Y0029350D02*
X0050050Y0030050D01*
M02*
