G75*
%MOIN*%
%OFA0B0*%
%FSLAX25Y25*%
%IPPOS*%
%LPD*%
%AMOC8*
5,1,8,0,0,1.08239X$1,22.5*
%
%ADD10C,0.00000*%
%ADD11R,0.05550X0.05550*%
%ADD12C,0.05550*%
%ADD13R,0.06900X0.06900*%
%ADD14C,0.06900*%
%ADD15C,0.00975*%
D10*
X0001000Y0001000D02*
X0103500Y0001039D01*
X0103500Y0103500D01*
X0001000Y0103500D01*
X0001000Y0001000D01*
D11*
X0037250Y0034061D03*
X0067250Y0010439D03*
X0067250Y0070439D03*
X0037250Y0094061D03*
D12*
X0037250Y0086187D03*
X0037250Y0078313D03*
X0037250Y0070439D03*
X0067250Y0078313D03*
X0067250Y0086187D03*
X0067250Y0094061D03*
X0067250Y0034061D03*
X0067250Y0026187D03*
X0067250Y0018313D03*
X0037250Y0018313D03*
X0037250Y0026187D03*
X0037250Y0010439D03*
D13*
X0007250Y0007250D03*
X0097250Y0007250D03*
D14*
X0097250Y0017250D03*
X0097250Y0027250D03*
X0097250Y0037250D03*
X0097250Y0047250D03*
X0097250Y0057250D03*
X0097250Y0067250D03*
X0097250Y0077250D03*
X0097250Y0087250D03*
X0097250Y0097250D03*
X0007250Y0097250D03*
X0007250Y0087250D03*
X0007250Y0077250D03*
X0007250Y0067250D03*
X0007250Y0057250D03*
X0007250Y0047250D03*
X0007250Y0037250D03*
X0007250Y0027250D03*
X0007250Y0017250D03*
D15*
X0063713Y0047787D02*
X0063713Y0050713D01*
X0063713Y0047787D02*
X0060787Y0047787D01*
X0060787Y0050713D01*
X0063713Y0050713D01*
X0063713Y0048761D02*
X0060787Y0048761D01*
X0060787Y0049735D02*
X0063713Y0049735D01*
X0063713Y0050709D02*
X0060787Y0050709D01*
X0063713Y0053787D02*
X0063713Y0056713D01*
X0063713Y0053787D02*
X0060787Y0053787D01*
X0060787Y0056713D01*
X0063713Y0056713D01*
X0063713Y0054761D02*
X0060787Y0054761D01*
X0060787Y0055735D02*
X0063713Y0055735D01*
X0063713Y0056709D02*
X0060787Y0056709D01*
X0075787Y0056713D02*
X0075787Y0053787D01*
X0075787Y0056713D02*
X0078713Y0056713D01*
X0078713Y0053787D01*
X0075787Y0053787D01*
X0075787Y0054761D02*
X0078713Y0054761D01*
X0078713Y0055735D02*
X0075787Y0055735D01*
X0075787Y0056709D02*
X0078713Y0056709D01*
X0075787Y0050713D02*
X0075787Y0047787D01*
X0075787Y0050713D02*
X0078713Y0050713D01*
X0078713Y0047787D01*
X0075787Y0047787D01*
X0075787Y0048761D02*
X0078713Y0048761D01*
X0078713Y0049735D02*
X0075787Y0049735D01*
X0075787Y0050709D02*
X0078713Y0050709D01*
M02*
