%
M48
M72
T01C0.0240
T02C0.0315
T03C0.0350
%
T01
X6165Y6780
X5445Y7590
T02
X3725Y9481
X3725Y8694
X3725Y7906
X3725Y7119
X6725Y7119
X6725Y7906
X6725Y8694
X6725Y9481
X6725Y3481
X6725Y2694
X6725Y1906
X6725Y1119
X3725Y1119
X3725Y1906
X3725Y2694
X3725Y3481
T03
X725Y800
X725Y1800
X725Y2800
X725Y3800
X725Y4800
X725Y5800
X725Y6800
X725Y7800
X725Y8800
X725Y9800
X9725Y9800
X9725Y8800
X9725Y7800
X9725Y6800
X9725Y5800
X9725Y4800
X9725Y3800
X9725Y2800
X9725Y1800
X9725Y800
M30
