G75*
%MOIN*%
%OFA0B0*%
%FSLAX25Y25*%
%IPPOS*%
%LPD*%
%AMOC8*
5,1,8,0,0,1.08239X$1,22.5*
%
%ADD10C,0.00000*%
%ADD11R,0.05150X0.05150*%
%ADD12C,0.05150*%
%ADD13R,0.06500X0.06500*%
%ADD14C,0.06500*%
%ADD15C,0.00875*%
%ADD16C,0.01000*%
%ADD17C,0.03200*%
%ADD18C,0.03600*%
%ADD19C,0.00600*%
D10*
X0001000Y0001000D02*
X0103500Y0001039D01*
X0103500Y0103500D01*
X0001000Y0103500D01*
X0001000Y0001000D01*
D11*
X0037250Y0034061D03*
X0067250Y0010439D03*
X0067250Y0070439D03*
X0037250Y0094061D03*
D12*
X0037250Y0086187D03*
X0037250Y0078313D03*
X0037250Y0070439D03*
X0067250Y0078313D03*
X0067250Y0086187D03*
X0067250Y0094061D03*
X0067250Y0034061D03*
X0067250Y0026187D03*
X0067250Y0018313D03*
X0037250Y0018313D03*
X0037250Y0026187D03*
X0037250Y0010439D03*
D13*
X0007250Y0007250D03*
X0097250Y0007250D03*
D14*
X0097250Y0017250D03*
X0097250Y0027250D03*
X0097250Y0037250D03*
X0097250Y0047250D03*
X0097250Y0057250D03*
X0097250Y0067250D03*
X0097250Y0077250D03*
X0097250Y0087250D03*
X0097250Y0097250D03*
X0007250Y0097250D03*
X0007250Y0087250D03*
X0007250Y0077250D03*
X0007250Y0067250D03*
X0007250Y0057250D03*
X0007250Y0047250D03*
X0007250Y0037250D03*
X0007250Y0027250D03*
X0007250Y0017250D03*
D15*
X0063563Y0047937D02*
X0063563Y0050563D01*
X0063563Y0047937D02*
X0060937Y0047937D01*
X0060937Y0050563D01*
X0063563Y0050563D01*
X0063563Y0048811D02*
X0060937Y0048811D01*
X0060937Y0049685D02*
X0063563Y0049685D01*
X0063563Y0050559D02*
X0060937Y0050559D01*
X0063563Y0053937D02*
X0063563Y0056563D01*
X0063563Y0053937D02*
X0060937Y0053937D01*
X0060937Y0056563D01*
X0063563Y0056563D01*
X0063563Y0054811D02*
X0060937Y0054811D01*
X0060937Y0055685D02*
X0063563Y0055685D01*
X0063563Y0056559D02*
X0060937Y0056559D01*
X0075937Y0056563D02*
X0075937Y0053937D01*
X0075937Y0056563D02*
X0078563Y0056563D01*
X0078563Y0053937D01*
X0075937Y0053937D01*
X0075937Y0054811D02*
X0078563Y0054811D01*
X0078563Y0055685D02*
X0075937Y0055685D01*
X0075937Y0056559D02*
X0078563Y0056559D01*
X0075937Y0050563D02*
X0075937Y0047937D01*
X0075937Y0050563D02*
X0078563Y0050563D01*
X0078563Y0047937D01*
X0075937Y0047937D01*
X0075937Y0048811D02*
X0078563Y0048811D01*
X0078563Y0049685D02*
X0075937Y0049685D01*
X0075937Y0050559D02*
X0078563Y0050559D01*
D16*
X0077950Y0050050D02*
X0077250Y0049250D01*
X0077050Y0049150D01*
X0062650Y0049150D01*
X0062250Y0049250D01*
X0062250Y0055250D02*
X0062650Y0055450D01*
X0062650Y0065350D01*
X0067150Y0069850D01*
X0067250Y0070439D01*
X0063550Y0074350D02*
X0077050Y0074350D01*
X0077050Y0055450D01*
X0077250Y0055250D01*
X0077950Y0050050D02*
X0092350Y0064450D01*
X0092350Y0072550D01*
X0096850Y0077050D01*
X0097250Y0077250D01*
X0077050Y0074350D02*
X0077050Y0084250D01*
X0067250Y0086187D02*
X0067150Y0086050D01*
X0063550Y0074350D02*
X0059950Y0070750D01*
X0048250Y0070750D01*
X0037250Y0078313D02*
X0036550Y0078850D01*
X0037250Y0078313D02*
X0037450Y0078850D01*
X0007750Y0067150D02*
X0007750Y0063550D01*
X0036550Y0034750D01*
X0037250Y0034061D01*
X0037450Y0033850D01*
X0042850Y0037450D02*
X0048250Y0037450D01*
X0037250Y0026187D02*
X0036550Y0026650D01*
X0007750Y0055450D01*
X0007750Y0057250D01*
X0007250Y0057250D01*
X0007250Y0047250D02*
X0011650Y0042850D01*
X0011650Y0038650D01*
X0036150Y0014150D01*
X0039150Y0014150D01*
X0043250Y0018250D01*
X0066850Y0018250D01*
X0067250Y0034061D02*
X0067150Y0034750D01*
X0037250Y0010439D02*
X0036550Y0010450D01*
X0007750Y0067150D02*
X0007250Y0067250D01*
D17*
X0007750Y0096850D02*
X0007250Y0097250D01*
X0007750Y0096850D02*
X0018550Y0096850D01*
X0036550Y0078850D01*
X0037450Y0078850D02*
X0044650Y0086050D01*
X0067150Y0086050D01*
X0068050Y0093250D02*
X0067250Y0094061D01*
X0068050Y0093250D02*
X0077050Y0084250D01*
X0089650Y0096850D01*
X0096850Y0096850D01*
X0097250Y0097250D01*
X0048250Y0070750D02*
X0048250Y0037450D01*
X0064450Y0037450D01*
X0067150Y0034750D01*
X0067250Y0034061D02*
X0068050Y0033850D01*
X0080650Y0033850D01*
X0097250Y0017250D01*
X0050050Y0029350D02*
X0039250Y0018550D01*
X0037450Y0018550D01*
X0037250Y0018313D01*
X0036550Y0010450D02*
X0014050Y0010450D01*
X0007250Y0017250D01*
X0037250Y0070439D02*
X0037450Y0070750D01*
X0048250Y0070750D01*
D18*
X0042850Y0037450D03*
X0050050Y0029350D03*
D19*
X0066850Y0018250D02*
X0067250Y0018313D01*
M02*
