G75*
%MOIN*%
%OFA0B0*%
%FSLAX25Y25*%
%IPPOS*%
%LPD*%
%AMOC8*
5,1,8,0,0,1.08239X$1,22.5*
%
%ADD10C,0.00000*%
%ADD11C,0.00800*%
%ADD12C,0.00500*%
D10*
X0001000Y0001750D02*
X0001000Y0104211D01*
X0103500Y0104250D01*
X0103500Y0001750D01*
X0001000Y0001750D01*
D11*
X0054451Y0046202D02*
X0055152Y0046202D01*
X0056553Y0044801D01*
X0056553Y0043400D02*
X0056553Y0046202D01*
X0058355Y0045502D02*
X0058355Y0044801D01*
X0061157Y0044801D01*
X0061157Y0044101D02*
X0060457Y0043400D01*
X0059055Y0043400D01*
X0058355Y0045502D02*
X0059055Y0046202D01*
X0060457Y0046202D01*
X0061157Y0045502D01*
X0061157Y0044101D01*
X0062959Y0044101D02*
X0062959Y0045502D01*
X0063659Y0046202D01*
X0065761Y0046202D01*
X0065761Y0041999D01*
X0065761Y0043400D02*
X0063659Y0043400D01*
X0062959Y0044101D01*
X0067563Y0044101D02*
X0067563Y0045502D01*
X0068263Y0046202D01*
X0069664Y0046202D01*
X0070365Y0045502D01*
X0070365Y0044101D01*
X0069664Y0043400D01*
X0068263Y0043400D01*
X0067563Y0044101D01*
X0072033Y0043400D02*
X0073434Y0043400D01*
X0072734Y0043400D02*
X0072734Y0047604D01*
X0073434Y0047604D01*
X0075236Y0045502D02*
X0075236Y0044801D01*
X0078038Y0044801D01*
X0078038Y0044101D02*
X0078038Y0045502D01*
X0077338Y0046202D01*
X0075936Y0046202D01*
X0075236Y0045502D01*
X0075936Y0043400D02*
X0077338Y0043400D01*
X0078038Y0044101D01*
X0079840Y0046202D02*
X0081241Y0043400D01*
X0082642Y0046202D01*
X0084444Y0045502D02*
X0084444Y0044801D01*
X0087246Y0044801D01*
X0087246Y0044101D02*
X0086545Y0043400D01*
X0085144Y0043400D01*
X0084444Y0045502D02*
X0085144Y0046202D01*
X0086545Y0046202D01*
X0087246Y0045502D01*
X0087246Y0044101D01*
X0089048Y0044101D02*
X0089048Y0046903D01*
X0089748Y0047604D01*
X0091850Y0047604D01*
X0091850Y0043400D01*
X0089748Y0043400D01*
X0089048Y0044101D01*
X0089048Y0050900D02*
X0091850Y0050900D01*
X0091850Y0055104D01*
X0089048Y0055104D01*
X0087246Y0054403D02*
X0087246Y0053702D01*
X0086545Y0053002D01*
X0085144Y0053002D01*
X0084444Y0052301D01*
X0084444Y0051601D01*
X0085144Y0050900D01*
X0086545Y0050900D01*
X0087246Y0051601D01*
X0087246Y0054403D02*
X0086545Y0055104D01*
X0085144Y0055104D01*
X0084444Y0054403D01*
X0082642Y0055104D02*
X0080540Y0055104D01*
X0079840Y0054403D01*
X0079840Y0053002D01*
X0080540Y0052301D01*
X0082642Y0052301D01*
X0082642Y0050900D02*
X0082642Y0055104D01*
X0082642Y0058400D02*
X0080540Y0058400D01*
X0079840Y0059101D01*
X0080540Y0059801D01*
X0081942Y0059801D01*
X0082642Y0060502D01*
X0081942Y0061202D01*
X0079840Y0061202D01*
X0078038Y0060502D02*
X0078038Y0059101D01*
X0077338Y0058400D01*
X0075936Y0058400D01*
X0075236Y0059801D02*
X0078038Y0059801D01*
X0078038Y0060502D02*
X0077338Y0061202D01*
X0075936Y0061202D01*
X0075236Y0060502D01*
X0075236Y0059801D01*
X0075936Y0053702D02*
X0076637Y0053702D01*
X0078038Y0052301D01*
X0078038Y0050900D02*
X0078038Y0053702D01*
X0084444Y0058400D02*
X0084444Y0060502D01*
X0085144Y0061202D01*
X0086545Y0061202D01*
X0086545Y0059801D02*
X0084444Y0059801D01*
X0084444Y0058400D02*
X0086545Y0058400D01*
X0087246Y0059101D01*
X0086545Y0059801D01*
X0089048Y0059801D02*
X0089048Y0059101D01*
X0089748Y0058400D01*
X0091850Y0058400D01*
X0091850Y0062604D01*
X0089748Y0062604D01*
X0089048Y0061903D01*
X0089048Y0061202D01*
X0089748Y0060502D01*
X0091850Y0060502D01*
X0089748Y0060502D02*
X0089048Y0059801D01*
X0089748Y0065900D02*
X0089048Y0066601D01*
X0089048Y0068002D01*
X0090449Y0068002D01*
X0091850Y0069403D02*
X0091850Y0066601D01*
X0091149Y0065900D01*
X0089748Y0065900D01*
X0087246Y0065900D02*
X0087246Y0068702D01*
X0087246Y0067301D02*
X0085845Y0068702D01*
X0085144Y0068702D01*
X0083409Y0068002D02*
X0083409Y0066601D01*
X0082709Y0065900D01*
X0081308Y0065900D01*
X0080607Y0066601D01*
X0080607Y0068002D01*
X0081308Y0068702D01*
X0082709Y0068702D01*
X0083409Y0068002D01*
X0078806Y0068702D02*
X0077404Y0065900D01*
X0076003Y0068702D01*
X0074202Y0068002D02*
X0073501Y0068702D01*
X0072100Y0068702D01*
X0071399Y0068002D01*
X0071399Y0067301D01*
X0074202Y0067301D01*
X0074202Y0066601D02*
X0074202Y0068002D01*
X0074202Y0066601D02*
X0073501Y0065900D01*
X0072100Y0065900D01*
X0068130Y0061903D02*
X0067429Y0062604D01*
X0068130Y0061903D02*
X0068130Y0058400D01*
X0068830Y0060502D02*
X0067429Y0060502D01*
X0065761Y0060502D02*
X0065761Y0059101D01*
X0065061Y0058400D01*
X0063659Y0058400D01*
X0062959Y0059101D01*
X0062959Y0060502D01*
X0063659Y0061202D01*
X0065061Y0061202D01*
X0065761Y0060502D01*
X0061157Y0061202D02*
X0061157Y0058400D01*
X0061157Y0059801D02*
X0059756Y0061202D01*
X0059055Y0061202D01*
X0089048Y0069403D02*
X0089748Y0070104D01*
X0091149Y0070104D01*
X0091850Y0069403D01*
X0091850Y0053002D02*
X0090449Y0053002D01*
D12*
X0052000Y0053300D02*
X0051550Y0052850D01*
X0050649Y0052850D01*
X0050198Y0053300D01*
X0052000Y0053300D02*
X0052000Y0055102D01*
X0051550Y0055552D01*
X0050649Y0055552D01*
X0050198Y0055102D01*
X0049053Y0055102D02*
X0049053Y0053300D01*
X0048603Y0052850D01*
X0047702Y0052850D01*
X0047252Y0053300D01*
X0046107Y0053300D02*
X0046107Y0052850D01*
X0045657Y0052850D01*
X0045657Y0053300D01*
X0046107Y0053300D01*
X0046107Y0054201D02*
X0045657Y0054201D01*
X0045657Y0054652D01*
X0046107Y0054652D01*
X0046107Y0054201D01*
X0047252Y0055102D02*
X0047702Y0055552D01*
X0048603Y0055552D01*
X0049053Y0055102D01*
X0050649Y0050752D02*
X0051550Y0050752D01*
X0052000Y0050302D01*
X0052000Y0049852D01*
X0051550Y0049401D01*
X0050649Y0049401D01*
X0050198Y0048951D01*
X0050198Y0048500D01*
X0050649Y0048050D01*
X0051550Y0048050D01*
X0052000Y0048500D01*
X0050198Y0050302D02*
X0050649Y0050752D01*
X0049053Y0048500D02*
X0048603Y0048500D01*
X0048603Y0048050D01*
X0049053Y0048050D01*
X0049053Y0048500D01*
X0051099Y0045952D02*
X0050198Y0045052D01*
X0050198Y0043250D01*
X0050198Y0044601D02*
X0052000Y0044601D01*
X0052000Y0045052D02*
X0051099Y0045952D01*
X0052000Y0045052D02*
X0052000Y0043250D01*
X0049053Y0043250D02*
X0047702Y0043250D01*
X0047252Y0043700D01*
X0047252Y0044601D01*
X0047702Y0045052D01*
X0049053Y0045052D01*
X0049053Y0042349D01*
X0046107Y0043250D02*
X0046107Y0045052D01*
X0046107Y0044151D02*
X0045206Y0045052D01*
X0044756Y0045052D01*
X0043652Y0045052D02*
X0043201Y0045052D01*
X0043201Y0043250D01*
X0042751Y0043250D02*
X0043652Y0043250D01*
X0041687Y0043250D02*
X0040786Y0043250D01*
X0041237Y0043250D02*
X0041237Y0045952D01*
X0041687Y0045952D01*
X0043201Y0045952D02*
X0043201Y0046403D01*
X0042832Y0048050D02*
X0044183Y0049401D01*
X0044634Y0048951D02*
X0042832Y0050752D01*
X0041687Y0049401D02*
X0041237Y0049852D01*
X0040336Y0049852D01*
X0039886Y0049401D01*
X0039886Y0048500D01*
X0040336Y0048050D01*
X0041237Y0048050D01*
X0041687Y0048500D01*
X0041687Y0049401D01*
X0038741Y0049852D02*
X0037390Y0049852D01*
X0036939Y0049401D01*
X0036939Y0048500D01*
X0037390Y0048050D01*
X0038741Y0048050D01*
X0038741Y0050752D01*
X0037840Y0052850D02*
X0037840Y0054201D01*
X0036939Y0055102D01*
X0036939Y0055552D01*
X0037840Y0054201D02*
X0038741Y0055102D01*
X0038741Y0055552D01*
X0039886Y0055102D02*
X0039886Y0054652D01*
X0040336Y0054201D01*
X0041687Y0054201D01*
X0040336Y0054201D02*
X0039886Y0053751D01*
X0039886Y0053300D01*
X0040336Y0052850D01*
X0041687Y0052850D01*
X0041687Y0055552D01*
X0040336Y0055552D01*
X0039886Y0055102D01*
X0035794Y0054201D02*
X0033993Y0054201D01*
X0032848Y0054652D02*
X0032848Y0055102D01*
X0032397Y0055552D01*
X0031496Y0055552D01*
X0031046Y0055102D01*
X0031496Y0054201D02*
X0031046Y0053751D01*
X0031046Y0053300D01*
X0031496Y0052850D01*
X0032397Y0052850D01*
X0032848Y0053300D01*
X0032397Y0054201D02*
X0031496Y0054201D01*
X0032397Y0054201D02*
X0032848Y0054652D01*
X0029901Y0054652D02*
X0029901Y0052850D01*
X0029901Y0054201D02*
X0028100Y0054201D01*
X0028100Y0054652D02*
X0028100Y0052850D01*
X0028100Y0054652D02*
X0029000Y0055552D01*
X0029901Y0054652D01*
X0029451Y0049852D02*
X0028550Y0049852D01*
X0028100Y0049401D01*
X0028100Y0048050D01*
X0029451Y0048050D01*
X0029901Y0048500D01*
X0029451Y0048951D01*
X0028100Y0048951D01*
X0026955Y0049401D02*
X0026504Y0049852D01*
X0025153Y0049852D01*
X0025603Y0048951D02*
X0026504Y0048951D01*
X0026955Y0049401D01*
X0026955Y0048050D02*
X0025603Y0048050D01*
X0025153Y0048500D01*
X0025603Y0048951D01*
X0024008Y0049401D02*
X0023558Y0049852D01*
X0022657Y0049852D01*
X0022207Y0049401D01*
X0022207Y0048050D01*
X0021062Y0048050D02*
X0020161Y0048050D01*
X0020611Y0048050D02*
X0020611Y0049852D01*
X0021062Y0049852D01*
X0020611Y0050752D02*
X0020611Y0051203D01*
X0024008Y0050752D02*
X0024008Y0048050D01*
X0024621Y0045952D02*
X0025522Y0045952D01*
X0025972Y0045502D01*
X0024621Y0045952D02*
X0024171Y0045502D01*
X0024171Y0045052D01*
X0025972Y0043250D01*
X0024171Y0043250D01*
X0023026Y0043700D02*
X0021224Y0045502D01*
X0021224Y0043700D01*
X0021675Y0043250D01*
X0022576Y0043250D01*
X0023026Y0043700D01*
X0023026Y0045502D01*
X0022576Y0045952D01*
X0021675Y0045952D01*
X0021224Y0045502D01*
X0020079Y0045052D02*
X0019179Y0045952D01*
X0019179Y0043250D01*
X0020079Y0043250D02*
X0018278Y0043250D01*
X0017133Y0043700D02*
X0017133Y0044601D01*
X0015782Y0044601D01*
X0015331Y0044151D01*
X0015331Y0043700D01*
X0015782Y0043250D01*
X0016682Y0043250D01*
X0017133Y0043700D01*
X0017133Y0044601D02*
X0016232Y0045502D01*
X0015331Y0045952D01*
X0029983Y0043700D02*
X0030433Y0043700D01*
X0030433Y0043250D01*
X0029983Y0043250D01*
X0029983Y0043700D01*
X0029983Y0043250D02*
X0030883Y0042349D01*
X0032479Y0043250D02*
X0032479Y0045952D01*
X0033830Y0044601D01*
X0032028Y0044601D01*
X0031947Y0047149D02*
X0031496Y0047149D01*
X0031046Y0047600D01*
X0031046Y0049852D01*
X0032848Y0049852D02*
X0032848Y0048500D01*
X0032397Y0048050D01*
X0031046Y0048050D01*
X0033993Y0048050D02*
X0035344Y0048050D01*
X0035794Y0048500D01*
X0035344Y0048951D01*
X0033993Y0048951D01*
X0033993Y0049401D02*
X0033993Y0048050D01*
X0033993Y0049401D02*
X0034443Y0049852D01*
X0035344Y0049852D01*
X0035876Y0045952D02*
X0035876Y0043250D01*
X0036776Y0043250D02*
X0034975Y0043250D01*
X0036776Y0045052D02*
X0035876Y0045952D01*
X0044634Y0048050D02*
X0044634Y0050752D01*
M02*
