G75*
%MOIN*%
%OFA0B0*%
%FSLAX25Y25*%
%IPPOS*%
%LPD*%
%AMOC8*
5,1,8,0,0,1.08239X$1,22.5*
%
%ADD10C,0.00000*%
%ADD11C,0.00800*%
%ADD12C,0.00500*%
%ADD13C,0.01000*%
D10*
X0001000Y0001750D02*
X0001000Y0104211D01*
X0103500Y0104250D01*
X0103500Y0001750D01*
X0001000Y0001750D01*
D11*
X0017150Y0003400D02*
X0017150Y0006202D01*
X0018551Y0007604D01*
X0019952Y0006202D01*
X0019952Y0003400D01*
X0021754Y0004101D02*
X0024556Y0006903D01*
X0024556Y0004101D01*
X0023856Y0003400D01*
X0022455Y0003400D01*
X0021754Y0004101D01*
X0021754Y0006903D01*
X0022455Y0007604D01*
X0023856Y0007604D01*
X0024556Y0006903D01*
X0019952Y0005502D02*
X0017150Y0005502D01*
X0017754Y0063400D02*
X0020556Y0063400D01*
X0019155Y0063400D02*
X0019155Y0067604D01*
X0017754Y0066202D01*
X0015952Y0066903D02*
X0015252Y0067604D01*
X0013150Y0067604D01*
X0013150Y0063400D01*
X0015252Y0063400D01*
X0015952Y0064101D01*
X0015952Y0066903D01*
X0022358Y0065502D02*
X0025160Y0065502D01*
X0024460Y0063400D02*
X0024460Y0067604D01*
X0022358Y0065502D01*
X0079650Y0067604D02*
X0079650Y0063400D01*
X0081752Y0063400D01*
X0082452Y0064101D01*
X0082452Y0066903D01*
X0081752Y0067604D01*
X0079650Y0067604D01*
X0084254Y0066202D02*
X0085655Y0067604D01*
X0085655Y0063400D01*
X0084254Y0063400D02*
X0087056Y0063400D01*
X0088858Y0063400D02*
X0091660Y0066202D01*
X0091660Y0066903D01*
X0090960Y0067604D01*
X0089558Y0067604D01*
X0088858Y0066903D01*
X0088858Y0063400D02*
X0091660Y0063400D01*
X0089925Y0007604D02*
X0088524Y0007604D01*
X0087823Y0006903D01*
X0087823Y0004101D01*
X0088524Y0003400D01*
X0089925Y0003400D01*
X0090626Y0004101D01*
X0090626Y0006903D02*
X0089925Y0007604D01*
X0086022Y0006903D02*
X0086022Y0006202D01*
X0083219Y0003400D01*
X0086022Y0003400D01*
X0086022Y0006903D02*
X0085321Y0007604D01*
X0083920Y0007604D01*
X0083219Y0006903D01*
X0081551Y0007604D02*
X0080150Y0007604D01*
X0080851Y0007604D02*
X0080851Y0003400D01*
X0081551Y0003400D02*
X0080150Y0003400D01*
D12*
X0074500Y0006200D02*
X0074500Y0006651D01*
X0074050Y0007101D01*
X0071798Y0007101D01*
X0071798Y0006651D02*
X0071798Y0007552D01*
X0073149Y0008697D02*
X0073149Y0010498D01*
X0074500Y0010048D02*
X0071798Y0010048D01*
X0073149Y0008697D01*
X0074500Y0006200D02*
X0074050Y0005750D01*
X0071187Y0003315D02*
X0063313Y0003315D01*
X0080000Y0014500D02*
X0081351Y0014500D01*
X0081802Y0014950D01*
X0081802Y0016752D01*
X0081351Y0017202D01*
X0080000Y0017202D01*
X0080000Y0014500D01*
X0082947Y0014950D02*
X0083397Y0014500D01*
X0084298Y0014500D01*
X0084748Y0014950D01*
X0084748Y0015851D01*
X0084298Y0016302D01*
X0083847Y0016302D01*
X0082947Y0015851D01*
X0082947Y0017202D01*
X0084748Y0017202D01*
X0084298Y0019300D02*
X0084298Y0022002D01*
X0082947Y0020651D01*
X0084748Y0020651D01*
X0081802Y0019750D02*
X0081802Y0021552D01*
X0081351Y0022002D01*
X0080000Y0022002D01*
X0080000Y0019300D01*
X0081351Y0019300D01*
X0081802Y0019750D01*
X0081351Y0024100D02*
X0080450Y0024100D01*
X0080000Y0024550D01*
X0080901Y0025451D02*
X0081351Y0025451D01*
X0081802Y0025001D01*
X0081802Y0024550D01*
X0081351Y0024100D01*
X0081351Y0025451D02*
X0081802Y0025902D01*
X0081802Y0026352D01*
X0081351Y0026802D01*
X0080450Y0026802D01*
X0080000Y0026352D01*
X0080450Y0028900D02*
X0081351Y0028900D01*
X0081802Y0029350D01*
X0081802Y0030251D01*
X0080901Y0030251D01*
X0081802Y0031152D02*
X0081351Y0031602D01*
X0080450Y0031602D01*
X0080000Y0031152D01*
X0080000Y0029350D01*
X0080450Y0028900D01*
X0082947Y0028900D02*
X0082947Y0031602D01*
X0084748Y0028900D01*
X0084748Y0031602D01*
X0085893Y0031602D02*
X0087244Y0031602D01*
X0087695Y0031152D01*
X0087695Y0029350D01*
X0087244Y0028900D01*
X0085893Y0028900D01*
X0085893Y0031602D01*
X0086343Y0026802D02*
X0087244Y0026802D01*
X0087695Y0026352D01*
X0087695Y0025902D01*
X0087244Y0025451D01*
X0087695Y0025001D01*
X0087695Y0024550D01*
X0087244Y0024100D01*
X0086343Y0024100D01*
X0085893Y0024550D01*
X0084748Y0025001D02*
X0084748Y0026802D01*
X0085893Y0026352D02*
X0086343Y0026802D01*
X0086794Y0025451D02*
X0087244Y0025451D01*
X0084748Y0025001D02*
X0083847Y0024100D01*
X0082947Y0025001D01*
X0082947Y0026802D01*
X0092250Y0003000D02*
X0092250Y0103000D01*
X0102250Y0103000D01*
X0102250Y0003000D01*
X0092250Y0003000D01*
X0044500Y0006200D02*
X0044500Y0006651D01*
X0044050Y0007101D01*
X0041798Y0007101D01*
X0041798Y0006651D02*
X0041798Y0007552D01*
X0042248Y0008697D02*
X0041798Y0009147D01*
X0041798Y0010048D01*
X0042248Y0010498D01*
X0042698Y0010498D01*
X0043149Y0010048D01*
X0043599Y0010498D01*
X0044050Y0010498D01*
X0044500Y0010048D01*
X0044500Y0009147D01*
X0044050Y0008697D01*
X0043149Y0009597D02*
X0043149Y0010048D01*
X0044500Y0006200D02*
X0044050Y0005750D01*
X0027240Y0014500D02*
X0027240Y0017202D01*
X0026340Y0017202D02*
X0028141Y0017202D01*
X0025195Y0017202D02*
X0025195Y0014950D01*
X0024744Y0014500D01*
X0023843Y0014500D01*
X0023393Y0014950D01*
X0023393Y0017202D01*
X0022248Y0016752D02*
X0021798Y0017202D01*
X0020897Y0017202D01*
X0020447Y0016752D01*
X0020447Y0014950D01*
X0020897Y0014500D01*
X0021798Y0014500D01*
X0022248Y0014950D01*
X0022248Y0016752D01*
X0021798Y0019300D02*
X0020897Y0019300D01*
X0020447Y0019750D01*
X0020447Y0021552D01*
X0020897Y0022002D01*
X0021798Y0022002D01*
X0022248Y0021552D01*
X0022248Y0019750D02*
X0021798Y0019300D01*
X0019302Y0019300D02*
X0019302Y0022002D01*
X0017500Y0022002D02*
X0017500Y0019300D01*
X0019302Y0019300D02*
X0017500Y0022002D01*
X0017950Y0024100D02*
X0017500Y0024550D01*
X0017950Y0024100D02*
X0018851Y0024100D01*
X0019302Y0024550D01*
X0019302Y0025001D01*
X0018851Y0025451D01*
X0018401Y0025451D01*
X0018851Y0025451D02*
X0019302Y0025902D01*
X0019302Y0026352D01*
X0018851Y0026802D01*
X0017950Y0026802D01*
X0017500Y0026352D01*
X0017950Y0028900D02*
X0017500Y0029350D01*
X0017500Y0031152D01*
X0017950Y0031602D01*
X0018851Y0031602D01*
X0019302Y0031152D01*
X0019302Y0030251D02*
X0018401Y0030251D01*
X0019302Y0030251D02*
X0019302Y0029350D01*
X0018851Y0028900D01*
X0017950Y0028900D01*
X0020447Y0028900D02*
X0020447Y0031602D01*
X0022248Y0028900D01*
X0022248Y0031602D01*
X0023393Y0031602D02*
X0024744Y0031602D01*
X0025195Y0031152D01*
X0025195Y0029350D01*
X0024744Y0028900D01*
X0023393Y0028900D01*
X0023393Y0031602D01*
X0023843Y0026802D02*
X0024744Y0026802D01*
X0025195Y0026352D01*
X0025195Y0025902D01*
X0024744Y0025451D01*
X0025195Y0025001D01*
X0025195Y0024550D01*
X0024744Y0024100D01*
X0023843Y0024100D01*
X0023393Y0024550D01*
X0022248Y0025001D02*
X0022248Y0026802D01*
X0023393Y0026352D02*
X0023843Y0026802D01*
X0024294Y0025451D02*
X0024744Y0025451D01*
X0022248Y0025001D02*
X0021347Y0024100D01*
X0020447Y0025001D01*
X0020447Y0026802D01*
X0019302Y0017202D02*
X0017500Y0017202D01*
X0018401Y0017202D02*
X0018401Y0014500D01*
X0012250Y0003000D02*
X0002250Y0003000D01*
X0002250Y0103000D01*
X0012250Y0103000D01*
X0012250Y0003000D01*
X0033313Y0042685D02*
X0041187Y0042685D01*
X0039750Y0047500D02*
X0039750Y0058500D01*
X0044750Y0058500D01*
X0044750Y0047500D01*
X0039750Y0047500D01*
X0038000Y0050750D02*
X0035298Y0050750D01*
X0035298Y0052101D01*
X0035748Y0052552D01*
X0036649Y0052552D01*
X0037099Y0052101D01*
X0037099Y0050750D01*
X0037099Y0051651D02*
X0038000Y0052552D01*
X0038000Y0053697D02*
X0038000Y0055498D01*
X0038000Y0054597D02*
X0035298Y0054597D01*
X0036198Y0053697D01*
X0029750Y0058500D02*
X0029750Y0047500D01*
X0024750Y0047500D01*
X0024750Y0058500D01*
X0029750Y0058500D01*
X0023000Y0055498D02*
X0023000Y0053697D01*
X0021198Y0055498D01*
X0020748Y0055498D01*
X0020298Y0055048D01*
X0020298Y0054147D01*
X0020748Y0053697D01*
X0020748Y0052552D02*
X0021649Y0052552D01*
X0022099Y0052101D01*
X0022099Y0050750D01*
X0022099Y0051651D02*
X0023000Y0052552D01*
X0023000Y0050750D02*
X0020298Y0050750D01*
X0020298Y0052101D01*
X0020748Y0052552D01*
X0041798Y0066651D02*
X0041798Y0067552D01*
X0041798Y0067101D02*
X0044050Y0067101D01*
X0044500Y0066651D01*
X0044500Y0066200D01*
X0044050Y0065750D01*
X0044500Y0068697D02*
X0044500Y0070498D01*
X0044500Y0069597D02*
X0041798Y0069597D01*
X0042698Y0068697D01*
X0025195Y0075851D02*
X0023393Y0075851D01*
X0024744Y0077202D01*
X0024744Y0074500D01*
X0022248Y0074500D02*
X0020447Y0074500D01*
X0021347Y0074500D02*
X0021347Y0077202D01*
X0020447Y0076302D01*
X0019302Y0076752D02*
X0019302Y0074950D01*
X0018851Y0074500D01*
X0017500Y0074500D01*
X0017500Y0077202D01*
X0018851Y0077202D01*
X0019302Y0076752D01*
X0018851Y0079300D02*
X0017500Y0079300D01*
X0017500Y0082002D01*
X0018851Y0082002D01*
X0019302Y0081552D01*
X0019302Y0079750D01*
X0018851Y0079300D01*
X0020447Y0079300D02*
X0022248Y0079300D01*
X0021347Y0079300D02*
X0021347Y0082002D01*
X0020447Y0081102D01*
X0021347Y0084100D02*
X0022248Y0085001D01*
X0022248Y0086802D01*
X0023393Y0086352D02*
X0023843Y0086802D01*
X0024744Y0086802D01*
X0025195Y0086352D01*
X0025195Y0085902D01*
X0024744Y0085451D01*
X0025195Y0085001D01*
X0025195Y0084550D01*
X0024744Y0084100D01*
X0023843Y0084100D01*
X0023393Y0084550D01*
X0024294Y0085451D02*
X0024744Y0085451D01*
X0024744Y0088900D02*
X0023393Y0088900D01*
X0023393Y0091602D01*
X0024744Y0091602D01*
X0025195Y0091152D01*
X0025195Y0089350D01*
X0024744Y0088900D01*
X0022248Y0088900D02*
X0022248Y0091602D01*
X0020447Y0091602D02*
X0022248Y0088900D01*
X0020447Y0088900D02*
X0020447Y0091602D01*
X0019302Y0091152D02*
X0018851Y0091602D01*
X0017950Y0091602D01*
X0017500Y0091152D01*
X0017500Y0089350D01*
X0017950Y0088900D01*
X0018851Y0088900D01*
X0019302Y0089350D01*
X0019302Y0090251D01*
X0018401Y0090251D01*
X0017950Y0086802D02*
X0018851Y0086802D01*
X0019302Y0086352D01*
X0019302Y0085902D01*
X0018851Y0085451D01*
X0019302Y0085001D01*
X0019302Y0084550D01*
X0018851Y0084100D01*
X0017950Y0084100D01*
X0017500Y0084550D01*
X0018401Y0085451D02*
X0018851Y0085451D01*
X0017500Y0086352D02*
X0017950Y0086802D01*
X0020447Y0086802D02*
X0020447Y0085001D01*
X0021347Y0084100D01*
X0023843Y0082002D02*
X0023393Y0081552D01*
X0023843Y0082002D02*
X0024744Y0082002D01*
X0025195Y0081552D01*
X0025195Y0081102D01*
X0023393Y0079300D01*
X0025195Y0079300D01*
X0016550Y0093250D02*
X0017000Y0093700D01*
X0017000Y0094151D01*
X0016550Y0094601D01*
X0014298Y0094601D01*
X0014298Y0094151D02*
X0014298Y0095052D01*
X0014298Y0096197D02*
X0014298Y0097548D01*
X0014748Y0097998D01*
X0015649Y0097998D01*
X0016099Y0097548D01*
X0016099Y0096197D01*
X0017000Y0096197D02*
X0014298Y0096197D01*
X0014748Y0099143D02*
X0014298Y0099593D01*
X0014298Y0100494D01*
X0014748Y0100945D01*
X0015198Y0100945D01*
X0017000Y0099143D01*
X0017000Y0100945D01*
X0033313Y0102685D02*
X0041187Y0102685D01*
X0072248Y0070498D02*
X0071798Y0070048D01*
X0071798Y0069147D01*
X0072248Y0068697D01*
X0071798Y0067552D02*
X0071798Y0066651D01*
X0071798Y0067101D02*
X0074050Y0067101D01*
X0074500Y0066651D01*
X0074500Y0066200D01*
X0074050Y0065750D01*
X0071187Y0063315D02*
X0063313Y0063315D01*
X0072248Y0070498D02*
X0072698Y0070498D01*
X0074500Y0068697D01*
X0074500Y0070498D01*
X0080000Y0074500D02*
X0081351Y0074500D01*
X0081802Y0074950D01*
X0081802Y0076752D01*
X0081351Y0077202D01*
X0080000Y0077202D01*
X0080000Y0074500D01*
X0082947Y0074500D02*
X0084748Y0074500D01*
X0083847Y0074500D02*
X0083847Y0077202D01*
X0082947Y0076302D01*
X0085893Y0076752D02*
X0086343Y0077202D01*
X0087244Y0077202D01*
X0087695Y0076752D01*
X0087695Y0076302D01*
X0085893Y0074500D01*
X0087695Y0074500D01*
X0087244Y0079300D02*
X0086343Y0079300D01*
X0085893Y0079750D01*
X0084748Y0079300D02*
X0082947Y0079300D01*
X0083847Y0079300D02*
X0083847Y0082002D01*
X0082947Y0081102D01*
X0081802Y0081552D02*
X0081351Y0082002D01*
X0080000Y0082002D01*
X0080000Y0079300D01*
X0081351Y0079300D01*
X0081802Y0079750D01*
X0081802Y0081552D01*
X0081351Y0084100D02*
X0080450Y0084100D01*
X0080000Y0084550D01*
X0080901Y0085451D02*
X0081351Y0085451D01*
X0081802Y0085001D01*
X0081802Y0084550D01*
X0081351Y0084100D01*
X0081351Y0085451D02*
X0081802Y0085902D01*
X0081802Y0086352D01*
X0081351Y0086802D01*
X0080450Y0086802D01*
X0080000Y0086352D01*
X0080450Y0088900D02*
X0081351Y0088900D01*
X0081802Y0089350D01*
X0081802Y0090251D01*
X0080901Y0090251D01*
X0081802Y0091152D02*
X0081351Y0091602D01*
X0080450Y0091602D01*
X0080000Y0091152D01*
X0080000Y0089350D01*
X0080450Y0088900D01*
X0082947Y0088900D02*
X0082947Y0091602D01*
X0084748Y0088900D01*
X0084748Y0091602D01*
X0085893Y0091602D02*
X0087244Y0091602D01*
X0087695Y0091152D01*
X0087695Y0089350D01*
X0087244Y0088900D01*
X0085893Y0088900D01*
X0085893Y0091602D01*
X0086798Y0094151D02*
X0086798Y0095052D01*
X0086798Y0094601D02*
X0089050Y0094601D01*
X0089500Y0094151D01*
X0089500Y0093700D01*
X0089050Y0093250D01*
X0089500Y0096197D02*
X0086798Y0096197D01*
X0086798Y0097548D01*
X0087248Y0097998D01*
X0088149Y0097998D01*
X0088599Y0097548D01*
X0088599Y0096197D01*
X0087698Y0099143D02*
X0086798Y0100044D01*
X0089500Y0100044D01*
X0089500Y0099143D02*
X0089500Y0100945D01*
X0087244Y0086802D02*
X0086343Y0086802D01*
X0085893Y0086352D01*
X0084748Y0086802D02*
X0084748Y0085001D01*
X0083847Y0084100D01*
X0082947Y0085001D01*
X0082947Y0086802D01*
X0085893Y0084550D02*
X0086343Y0084100D01*
X0087244Y0084100D01*
X0087695Y0084550D01*
X0087695Y0085001D01*
X0087244Y0085451D01*
X0086794Y0085451D01*
X0087244Y0085451D02*
X0087695Y0085902D01*
X0087695Y0086352D01*
X0087244Y0086802D01*
X0087244Y0082002D02*
X0086343Y0082002D01*
X0085893Y0081552D01*
X0086794Y0080651D02*
X0087244Y0080651D01*
X0087695Y0080201D01*
X0087695Y0079750D01*
X0087244Y0079300D01*
X0087244Y0080651D02*
X0087695Y0081102D01*
X0087695Y0081552D01*
X0087244Y0082002D01*
D13*
X0078274Y0070402D02*
X0075911Y0070402D01*
X0075911Y0095598D01*
X0078274Y0095598D01*
X0078274Y0102685D01*
X0075911Y0102685D01*
X0058589Y0102685D01*
X0058589Y0063315D01*
X0075911Y0063315D01*
X0078274Y0063315D01*
X0078274Y0070402D01*
X0075911Y0070402D02*
X0075911Y0063315D01*
X0075911Y0042685D02*
X0058589Y0042685D01*
X0058589Y0003315D01*
X0075911Y0003315D01*
X0078274Y0003315D01*
X0078274Y0010402D01*
X0075911Y0010402D01*
X0075911Y0035598D01*
X0078274Y0035598D01*
X0078274Y0042685D01*
X0075911Y0042685D01*
X0075911Y0035598D01*
X0073156Y0042685D02*
X0061344Y0042685D01*
X0045911Y0042685D02*
X0045911Y0003315D01*
X0028589Y0003315D01*
X0026226Y0003315D01*
X0026226Y0010402D01*
X0028589Y0010402D01*
X0028589Y0035598D01*
X0026226Y0035598D01*
X0026226Y0042685D01*
X0028589Y0042685D01*
X0028589Y0035598D01*
X0028589Y0042685D02*
X0045911Y0042685D01*
X0045911Y0063315D02*
X0028589Y0063315D01*
X0026226Y0063315D01*
X0026226Y0070402D01*
X0028589Y0070402D01*
X0028589Y0095598D01*
X0026226Y0095598D01*
X0026226Y0102685D01*
X0028589Y0102685D01*
X0028589Y0095598D01*
X0028589Y0102685D02*
X0045911Y0102685D01*
X0045911Y0063315D01*
X0043156Y0063315D02*
X0031344Y0063315D01*
X0028589Y0063315D02*
X0028589Y0070402D01*
X0061344Y0102685D02*
X0073156Y0102685D01*
X0075911Y0102685D02*
X0075911Y0095598D01*
X0075911Y0010402D02*
X0075911Y0003315D01*
X0043156Y0003315D02*
X0031344Y0003315D01*
X0028589Y0003315D02*
X0028589Y0010402D01*
M02*
